<svg width="32" height="32" viewBox="0 0 32 32" fill="none" xmlns="http://www.w3.org/2000/svg">
<g clip-path="url(#clip0_8_2)">
<path d="M28.386 10.53C28.386 17.74 24.378 23.128 18.468 23.128C16.483 23.128 14.617 22.055 13.978 20.836C13.978 20.836 12.91 25.071 12.686 25.889C11.89 28.777 9.54901 31.666 9.36801 31.904C9.24101 32.069 8.96101 32.017 8.93101 31.799C8.88001 31.431 8.28401 27.786 8.98601 24.813L11.35 14.797C11.35 14.797 10.764 13.623 10.764 11.889C10.764 9.164 12.342 7.131 14.308 7.131C15.98 7.131 16.787 8.385 16.787 9.89C16.787 11.572 15.718 14.084 15.165 16.412C14.704 18.362 16.143 19.953 18.066 19.953C21.548 19.953 23.893 15.479 23.893 10.18C23.893 6.152 21.181 3.136 16.245 3.136C10.671 3.136 7.19601 7.294 7.19601 11.939C7.19601 13.541 7.66901 14.671 8.40901 15.544C8.74801 15.946 8.79601 16.107 8.67301 16.569C8.58301 16.908 8.38301 17.721 8.29701 18.044C8.17501 18.51 7.79801 18.676 7.37701 18.504C4.81001 17.456 3.61301 14.643 3.61301 11.482C3.61401 6.261 8.01701 0 16.75 0C23.769 0 28.386 5.077 28.386 10.53Z" fill="#006C98"/>
</g>
<defs>
<clipPath id="clip0_8_2">
<rect width="32" height="32" fill="white"/>
</clipPath>
</defs>
</svg>
