<svg width="26" height="32" viewBox="0 0 26 32" fill="none" xmlns="http://www.w3.org/2000/svg">
<path d="M25.386 10.53C25.386 17.74 21.378 23.128 15.468 23.128C13.483 23.128 11.617 22.055 10.978 20.836C10.978 20.836 9.91 25.071 9.686 25.889C8.89 28.777 6.549 31.666 6.368 31.904C6.241 32.069 5.961 32.017 5.931 31.799C5.88 31.431 5.284 27.786 5.986 24.813L8.35 14.797C8.35 14.797 7.764 13.623 7.764 11.889C7.764 9.164 9.342 7.131 11.308 7.131C12.98 7.131 13.787 8.385 13.787 9.89C13.787 11.572 12.718 14.084 12.165 16.412C11.704 18.362 13.143 19.953 15.066 19.953C18.548 19.953 20.893 15.479 20.893 10.18C20.893 6.152 18.181 3.136 13.245 3.136C7.671 3.136 4.196 7.294 4.196 11.939C4.196 13.541 4.669 14.671 5.409 15.544C5.748 15.946 5.796 16.107 5.673 16.569C5.583 16.908 5.383 17.721 5.297 18.044C5.175 18.51 4.798 18.676 4.377 18.504C1.81 17.456 0.612999 14.643 0.612999 11.482C0.613999 6.261 5.017 0 13.75 0C20.769 0 25.386 5.077 25.386 10.53Z" fill="#0AAEE4"/>
</svg>
