<svg width="25" height="33" viewBox="0 0 25 33" fill="none" xmlns="http://www.w3.org/2000/svg">
<path d="M24.773 10.53C24.773 17.74 20.765 23.128 14.855 23.128C12.87 23.128 11.004 22.055 10.365 20.836C10.365 20.836 9.297 25.071 9.073 25.889C8.277 28.777 5.936 31.666 5.755 31.904C5.628 32.069 5.348 32.017 5.318 31.799C5.267 31.431 4.671 27.786 5.373 24.813L7.737 14.797C7.737 14.797 7.151 13.623 7.151 11.889C7.151 9.164 8.729 7.131 10.695 7.131C12.367 7.131 13.174 8.385 13.174 9.89C13.174 11.572 12.105 14.084 11.552 16.412C11.091 18.362 12.53 19.953 14.453 19.953C17.935 19.953 20.28 15.479 20.28 10.18C20.28 6.152 17.568 3.136 12.632 3.136C7.058 3.136 3.583 7.294 3.583 11.939C3.583 13.541 4.056 14.671 4.796 15.544C5.135 15.946 5.183 16.107 5.06 16.569C4.97 16.908 4.77 17.721 4.684 18.044C4.562 18.51 4.185 18.676 3.764 18.504C1.197 17.456 0 14.643 0 11.482C0.001 6.261 4.404 0 13.137 0C20.156 0 24.773 5.077 24.773 10.53Z" fill="#CECFCF"/>
</svg>
