<svg width="57" height="57" viewBox="0 0 57 57" fill="none" xmlns="http://www.w3.org/2000/svg">
<path d="M52.837 15.0652C50.9928 15.8837 49.0359 16.4201 47.032 16.6562C49.1435 15.3939 50.7232 13.4061 51.476 11.0642C49.4922 12.2421 47.3216 13.0721 45.058 13.5182C44.1126 12.5092 42.97 11.7052 41.701 11.1561C40.432 10.607 39.0637 10.3246 37.681 10.3262C32.1 10.3262 27.575 14.8512 27.575 20.4332C27.575 21.2242 27.664 21.9952 27.837 22.7362C19.437 22.3142 11.989 18.2912 7.004 12.1762C6.10489 13.7187 5.63272 15.4728 5.636 17.2582C5.636 20.7642 7.42 23.8582 10.132 25.6702C8.52701 25.6193 6.95742 25.1855 5.554 24.4052L5.553 24.5332C5.553 29.4292 9.037 33.5132 13.661 34.4432C12.1721 34.8462 10.611 34.9051 9.096 34.6152C10.383 38.6302 14.115 41.5532 18.537 41.6342C14.9572 44.4443 10.536 45.9684 5.985 45.9612C5.17 45.9612 4.365 45.9132 3.574 45.8192C8.19506 48.7893 13.5737 50.3658 19.067 50.3602C37.658 50.3602 47.823 34.9602 47.823 21.6042C47.823 21.1662 47.814 20.7292 47.795 20.2952C49.774 18.8664 51.4816 17.0952 52.837 15.0652Z" fill="#006C98"/>
</svg>
