<svg width="50" height="41" viewBox="0 0 50 41" fill="none" xmlns="http://www.w3.org/2000/svg">
<path d="M49.837 5.06493C47.9928 5.88348 46.0359 6.41982 44.032 6.65593C46.1435 5.39369 47.7232 3.4059 48.476 1.06393C46.4922 2.24189 44.3216 3.07185 42.058 3.51793C41.1126 2.50895 39.97 1.70498 38.701 1.15589C37.432 0.606799 36.0637 0.324307 34.681 0.325935C29.1 0.325935 24.575 4.85093 24.575 10.4329C24.575 11.2239 24.664 11.9949 24.837 12.7359C16.437 12.3139 8.989 8.29093 4.004 2.17593C3.10489 3.71844 2.63272 5.47252 2.636 7.25793C2.636 10.7639 4.42 13.8579 7.132 15.6699C5.52701 15.619 3.95742 15.1853 2.554 14.4049L2.553 14.5329C2.553 19.4289 6.037 23.5129 10.661 24.4429C9.17211 24.846 7.611 24.9048 6.096 24.6149C7.383 28.6299 11.115 31.5529 15.537 31.6339C11.9572 34.4441 7.53604 35.9682 2.985 35.9609C2.17 35.9609 1.365 35.9129 0.573997 35.8189C5.19506 38.7891 10.5737 40.3656 16.067 40.3599C34.658 40.3599 44.823 24.9599 44.823 11.6039C44.823 11.1659 44.814 10.7289 44.795 10.2949C46.774 8.86616 48.4816 7.09494 49.837 5.06493V5.06493Z" fill="#0AAEE4"/>
</svg>
