<svg width="50" height="41" viewBox="0 0 50 41" fill="none" xmlns="http://www.w3.org/2000/svg">
<path d="M49.263 4.73901C47.4188 5.55756 45.4619 6.0939 43.458 6.33001C45.5695 5.06776 47.1492 3.07998 47.902 0.738007C45.9182 1.91596 43.7476 2.74593 41.484 3.19201C40.5386 2.18302 39.396 1.37905 38.127 0.829959C36.858 0.280871 35.4897 -0.00162095 34.107 6.99629e-06C28.526 6.99629e-06 24.001 4.52501 24.001 10.107C24.001 10.898 24.09 11.669 24.263 12.41C15.863 11.988 8.415 7.96501 3.43 1.85001C2.5309 3.39251 2.05872 5.1466 2.062 6.93201C2.062 10.438 3.846 13.532 6.558 15.344C4.95301 15.2931 3.38343 14.8594 1.98 14.079L1.979 14.207C1.979 19.103 5.463 23.187 10.087 24.117C8.59811 24.5201 7.037 24.5789 5.522 24.289C6.809 28.304 10.541 31.227 14.963 31.308C11.3832 34.1181 6.96204 35.6422 2.411 35.635C1.596 35.635 0.791 35.587 0 35.493C4.62106 38.4632 9.99973 40.0396 15.493 40.034C34.084 40.034 44.249 24.634 44.249 11.278C44.249 10.84 44.24 10.403 44.221 9.96901C46.2 8.54023 47.9076 6.76901 49.263 4.73901V4.73901Z" fill="#CECFCF"/>
</svg>
