<svg width="29" height="29" viewBox="0 0 29 29" fill="none" xmlns="http://www.w3.org/2000/svg">
<path fill-rule="evenodd" clip-rule="evenodd" d="M14.5 29C22.5081 29 29 22.5081 29 14.5C29 6.49187 22.5081 0 14.5 0C6.49187 0 0 6.49187 0 14.5C0 22.5081 6.49187 29 14.5 29ZM17.7071 7.70711C18.0976 7.31658 18.0976 6.68342 17.7071 6.29289C17.3166 5.90237 16.6834 5.90237 16.2929 6.29289L10 12.5858C9.21895 13.3668 9.21895 14.6332 10 15.4142L16.2929 21.7071C16.6834 22.0976 17.3166 22.0976 17.7071 21.7071C18.0976 21.3166 18.0976 20.6834 17.7071 20.2929L11.4142 14L17.7071 7.70711Z" fill="#0AAEE4" fill-opacity="0.5"/>
</svg>
