<svg xmlns="http://www.w3.org/2000/svg" width="37.344" height="37.344">
    <path fill-rule="evenodd" fill="#FFF" d="m28 26.301-8.261-8.269a11.07 11.07 0 0 0 2.428-6.934C22.167 4.966 17.201 0 11.083 0 4.958 0 0 4.973 0 11.098c0 6.125 4.966 11.098 11.083 11.098 2.64 0 5.061-.926 6.964-2.465L26.301 28 28 26.301zM4.652 17.543a9.038 9.038 0 0 1-2.661-6.438c0-2.434.949-4.721 2.661-6.439a9.036 9.036 0 0 1 6.431-2.674c2.427 0 4.714.949 6.432 2.667a9.044 9.044 0 0 1 2.661 6.439c0 2.434-.949 4.72-2.661 6.438a9.04 9.04 0 0 1-6.432 2.668 9.007 9.007 0 0 1-6.431-2.661z"/>
</svg>
