<svg viewBox="0 0 32 32" xml:space="preserve" xmlns="http://www.w3.org/2000/svg">
    <path d="M28.386 10.53c0 7.21-4.008 12.598-9.918 12.598-1.985 0-3.851-1.073-4.49-2.292 0 0-1.068 4.235-1.292 5.053-.796 2.888-3.137 5.777-3.318 6.015-.127.165-.407.113-.437-.105-.051-.368-.647-4.013.055-6.986l2.364-10.016s-.586-1.174-.586-2.908c0-2.725 1.578-4.758 3.544-4.758 1.672 0 2.479 1.254 2.479 2.759 0 1.682-1.069 4.194-1.622 6.522-.461 1.95.978 3.541 2.901 3.541 3.482 0 5.827-4.474 5.827-9.773 0-4.028-2.712-7.044-7.648-7.044-5.574 0-9.049 4.158-9.049 8.803 0 1.602.473 2.732 1.213 3.605.339.402.387.563.264 1.025-.09.339-.29 1.152-.376 1.475-.122.466-.499.632-.92.46-2.567-1.048-3.764-3.861-3.764-7.022C3.614 6.261 8.017 0 16.75 0c7.019 0 11.636 5.077 11.636 10.53z"/>
</svg>
