<svg width="17" height="17" viewBox="0 0 17 17" fill="none" xmlns="http://www.w3.org/2000/svg">
<path d="M15.8627 0.562183L1.05484 15.803C0.891606 15.971 0.891606 16.2434 1.05484 16.4114C1.21808 16.5794 1.48273 16.5794 1.64597 16.4114L16.4538 1.17059C16.6171 1.00258 16.6171 0.73019 16.4538 0.562183C16.2906 0.394175 16.0259 0.394175 15.8627 0.562183Z" fill="#0AAEE4"/>
<path d="M15.9489 15.8283L1.13845 0.584848C0.974881 0.416501 0.70969 0.416501 0.546125 0.584848C0.382561 0.753194 0.382561 1.02614 0.546125 1.19448L15.3566 16.4379C15.5201 16.6063 15.7853 16.6063 15.9489 16.4379C16.1124 16.2696 16.1124 15.9966 15.9489 15.8283Z" fill="#0AAEE4"/>
</svg>
