<svg width="17" height="17" viewBox="0 0 17 17" fill="none" xmlns="http://www.w3.org/2000/svg">
<path d="M15.8627 0.562427L1.05484 15.8032C0.891606 15.9712 0.891606 16.2436 1.05484 16.4116C1.21808 16.5796 1.48273 16.5796 1.64597 16.4116L16.4538 1.17084C16.6171 1.00283 16.6171 0.730435 16.4538 0.562427C16.2906 0.394419 16.0259 0.394419 15.8627 0.562427Z" fill="#0AAEE4"/>
<path d="M15.9489 15.828L1.13845 0.584604C0.974881 0.416257 0.70969 0.416257 0.546125 0.584604C0.382561 0.75295 0.382561 1.02589 0.546125 1.19424L15.3566 16.4377C15.5201 16.606 15.7853 16.606 15.9489 16.4377C16.1124 16.2693 16.1124 15.9964 15.9489 15.828Z" fill="#0AAEE4"/>
</svg>
