<svg width="70" height="60" viewBox="0 0 70 60" fill="none" xmlns="http://www.w3.org/2000/svg">
<mask id="path-1-inside-1_39_9" fill="white">
<rect x="8.36957" y="10" width="53.2609" height="50" rx="3"/>
</mask>
<rect x="8.36957" y="10" width="53.2609" height="50" rx="3" fill="#0AAEE4" fill-opacity="0.18" stroke="#0AAEE4" stroke-width="10" mask="url(#path-1-inside-1_39_9)"/>
<path d="M35.3643 38.962L58.7385 14.0924C58.8361 13.9887 58.8652 13.9027 58.8754 13.8352C58.8874 13.7548 58.8776 13.6544 58.8331 13.5515C58.7886 13.4487 58.7222 13.3727 58.6554 13.3265C58.5992 13.2877 58.5166 13.25 58.3742 13.25H11.6258C11.4834 13.25 11.4007 13.2877 11.3446 13.3265C11.2778 13.3727 11.2114 13.4487 11.1669 13.5515C11.1224 13.6544 11.1126 13.7548 11.1246 13.8351C11.1348 13.9026 11.1639 13.9887 11.2615 14.0924L34.6357 38.962C34.8331 39.1721 35.1669 39.1721 35.3643 38.962Z" fill="#0AAEE4" fill-opacity="0.18" stroke="#0AAEE4" stroke-width="5"/>
</svg>
