<svg width="54" height="68" viewBox="0 0 54 68" fill="none" xmlns="http://www.w3.org/2000/svg">
<path d="M40 22V5C40 2.79086 38.2091 1 36 1H5C2.79086 1 1 2.79086 1 5V57C1 59.2091 2.79086 61 5 61H36C38.2091 61 40 59.2091 40 57V40" stroke="white" stroke-width="2"/>
<path d="M1 57.0275V5.49219C1 2.7786 3.64458 0.852534 6.22729 1.68512L23.2273 7.16542C24.8798 7.69815 26 9.23618 26 10.9725V62.5078C26 65.2214 23.3554 67.1475 20.7727 66.3149L3.77271 60.8346C2.12015 60.3018 1 58.7638 1 57.0275Z" fill="white" stroke="white" stroke-width="2"/>
<path d="M53.7071 31.7071C54.0976 31.3166 54.0976 30.6834 53.7071 30.2929L47.3431 23.9289C46.9526 23.5384 46.3195 23.5384 45.9289 23.9289C45.5384 24.3195 45.5384 24.9526 45.9289 25.3431L51.5858 31L45.9289 36.6569C45.5384 37.0474 45.5384 37.6805 45.9289 38.0711C46.3195 38.4616 46.9526 38.4616 47.3431 38.0711L53.7071 31.7071ZM33 32H53V30H33V32Z" fill="white"/>
</svg>
