<svg width="28" height="28" viewBox="0 0 28 28" fill="none" xmlns="http://www.w3.org/2000/svg">
<path fill-rule="evenodd" clip-rule="evenodd" d="M28 26.301L19.739 18.032C21.3141 16.0645 22.1706 13.6183 22.167 11.098C22.167 4.966 17.201 0 11.083 0C4.958 0 0 4.973 0 11.098C0 17.223 4.966 22.196 11.083 22.196C13.723 22.196 16.144 21.27 18.047 19.731L26.301 28L28 26.301ZM4.652 17.543C3.80461 16.6993 3.13307 15.6958 2.6763 14.5907C2.21953 13.4856 1.98659 12.3008 1.991 11.105C1.991 8.671 2.94 6.384 4.652 4.666C5.49375 3.81701 6.4956 3.1435 7.59952 2.6845C8.70343 2.22549 9.88746 1.99011 11.083 1.992C13.51 1.992 15.797 2.941 17.515 4.659C18.3622 5.50304 19.0337 6.50672 19.4904 7.61197C19.9472 8.71723 20.1802 9.90209 20.176 11.098C20.176 13.532 19.227 15.818 17.515 17.536C16.6725 18.3838 15.6702 19.0562 14.5662 19.5142C13.4622 19.9721 12.2783 20.2066 11.083 20.204C9.88814 20.2092 8.70418 19.9766 7.6001 19.5198C6.49601 19.0629 5.49385 18.3909 4.652 17.543Z" fill="#0AAEE4"/>
</svg>
